<?xml version="1.0" encoding="utf-8"?>
<!-- Generator: Adobe Illustrator 22.1.0, SVG Export Plug-In . SVG Version: 6.00 Build 0)  -->
<svg version="1.1" id="Layer_1" xmlns="http://www.w3.org/2000/svg" xmlns:xlink="http://www.w3.org/1999/xlink" x="0px" y="0px"
	 viewBox="0 0 99.6 85.6" style="enable-background:new 0 0 99.6 85.6;" xml:space="preserve">
<style type="text/css">
	.st0{fill:url(#SVGID_1_);}
	.st1{fill:url(#SVGID_2_);}
	.st2{fill:url(#SVGID_3_);}
	.st3{fill:url(#SVGID_4_);}
	.st4{fill:url(#SVGID_5_);}
	.st5{fill:url(#SVGID_6_);}
	.st6{fill:url(#SVGID_7_);}
	.st7{fill:url(#SVGID_8_);}
	.st8{fill:url(#SVGID_9_);}
	.st9{fill:url(#SVGID_10_);}
	.st10{fill:url(#SVGID_11_);}
	.st11{fill:url(#SVGID_12_);}
	.st12{fill:url(#SVGID_13_);}
	.st13{fill:url(#SVGID_14_);}
	.st14{fill:url(#SVGID_15_);}
	.st15{fill:url(#SVGID_16_);}
</style>
<g>
	<linearGradient id="SVGID_1_" gradientUnits="userSpaceOnUse" x1="7.9658" y1="69.1741" x2="7.9658" y2="2.5309">
		<stop  offset="7.066583e-03" style="stop-color:#486ADA"/>
		<stop  offset="0.1742" style="stop-color:#4965DB"/>
		<stop  offset="0.381" style="stop-color:#4D55E0"/>
		<stop  offset="0.6088" style="stop-color:#523CE6"/>
		<stop  offset="0.8499" style="stop-color:#5A1AF0"/>
		<stop  offset="1" style="stop-color:#6000F7"/>
	</linearGradient>
	<path class="st0" d="M6.5-4.3c0,7.3,0,14.7,0,22c0,1.9,3,1.9,3,0c0-7.3,0-14.7,0-22C9.5-6.3,6.5-6.3,6.5-4.3L6.5-4.3z"/>
</g>
<g>
	<linearGradient id="SVGID_2_" gradientUnits="userSpaceOnUse" x1="14.9658" y1="69.1741" x2="14.9658" y2="2.5309">
		<stop  offset="7.066583e-03" style="stop-color:#486ADA"/>
		<stop  offset="0.1742" style="stop-color:#4965DB"/>
		<stop  offset="0.381" style="stop-color:#4D55E0"/>
		<stop  offset="0.6088" style="stop-color:#523CE6"/>
		<stop  offset="0.8499" style="stop-color:#5A1AF0"/>
		<stop  offset="1" style="stop-color:#6000F7"/>
	</linearGradient>
	<path class="st1" d="M13.5-4.3c0,12.7,0,25.3,0,38c0,1.9,3,1.9,3,0c0-12.7,0-25.3,0-38C16.5-6.3,13.5-6.3,13.5-4.3L13.5-4.3z"/>
</g>
<g>
	<linearGradient id="SVGID_3_" gradientUnits="userSpaceOnUse" x1="21.9658" y1="69.1741" x2="21.9658" y2="2.5309">
		<stop  offset="7.066583e-03" style="stop-color:#486ADA"/>
		<stop  offset="0.1742" style="stop-color:#4965DB"/>
		<stop  offset="0.381" style="stop-color:#4D55E0"/>
		<stop  offset="0.6088" style="stop-color:#523CE6"/>
		<stop  offset="0.8499" style="stop-color:#5A1AF0"/>
		<stop  offset="1" style="stop-color:#6000F7"/>
	</linearGradient>
	<path class="st2" d="M20.5-4.3c0,18.7,0,37.3,0,56c0,1.9,3,1.9,3,0c0-18.7,0-37.3,0-56C23.5-6.3,20.5-6.3,20.5-4.3L20.5-4.3z"/>
</g>
<g>
	<linearGradient id="SVGID_4_" gradientUnits="userSpaceOnUse" x1="28.9658" y1="69.1741" x2="28.9658" y2="2.5309">
		<stop  offset="7.066583e-03" style="stop-color:#486ADA"/>
		<stop  offset="0.1742" style="stop-color:#4965DB"/>
		<stop  offset="0.381" style="stop-color:#4D55E0"/>
		<stop  offset="0.6088" style="stop-color:#523CE6"/>
		<stop  offset="0.8499" style="stop-color:#5A1AF0"/>
		<stop  offset="1" style="stop-color:#6000F7"/>
	</linearGradient>
	<path class="st3" d="M27.5-4.3c0,25.7,0,51.3,0,77c0,1.9,3,1.9,3,0c0-25.7,0-51.3,0-77C30.5-6.3,27.5-6.3,27.5-4.3L27.5-4.3z"/>
</g>
<g>
	<linearGradient id="SVGID_5_" gradientUnits="userSpaceOnUse" x1="28.9658" y1="69.1741" x2="28.9658" y2="2.5309">
		<stop  offset="7.066583e-03" style="stop-color:#486ADA"/>
		<stop  offset="0.1742" style="stop-color:#4965DB"/>
		<stop  offset="0.381" style="stop-color:#4D55E0"/>
		<stop  offset="0.6088" style="stop-color:#523CE6"/>
		<stop  offset="0.8499" style="stop-color:#5A1AF0"/>
		<stop  offset="1" style="stop-color:#6000F7"/>
	</linearGradient>
	<path class="st4" d="M27.5,78.7c0,0.8,0,1.7,0,2.5c0,0.8,0.7,1.5,1.5,1.5c0.8,0,1.5-0.7,1.5-1.5c0-0.8,0-1.7,0-2.5
		c0-0.8-0.7-1.5-1.5-1.5C28.2,77.2,27.5,77.8,27.5,78.7L27.5,78.7z"/>
</g>
<g>
	<linearGradient id="SVGID_6_" gradientUnits="userSpaceOnUse" x1="35.9658" y1="69.1741" x2="35.9658" y2="2.5309">
		<stop  offset="7.066583e-03" style="stop-color:#486ADA"/>
		<stop  offset="0.1742" style="stop-color:#4965DB"/>
		<stop  offset="0.381" style="stop-color:#4D55E0"/>
		<stop  offset="0.6088" style="stop-color:#523CE6"/>
		<stop  offset="0.8499" style="stop-color:#5A1AF0"/>
		<stop  offset="1" style="stop-color:#6000F7"/>
	</linearGradient>
	<path class="st5" d="M34.5-4.3c0,23,0,46,0,69c0,1.9,3,1.9,3,0c0-23,0-46,0-69C37.5-6.3,34.5-6.3,34.5-4.3L34.5-4.3z"/>
</g>
<g>
	<linearGradient id="SVGID_7_" gradientUnits="userSpaceOnUse" x1="42.9658" y1="69.1741" x2="42.9658" y2="2.5309">
		<stop  offset="7.066583e-03" style="stop-color:#486ADA"/>
		<stop  offset="0.1742" style="stop-color:#4965DB"/>
		<stop  offset="0.381" style="stop-color:#4D55E0"/>
		<stop  offset="0.6088" style="stop-color:#523CE6"/>
		<stop  offset="0.8499" style="stop-color:#5A1AF0"/>
		<stop  offset="1" style="stop-color:#6000F7"/>
	</linearGradient>
	<path class="st6" d="M41.5-4.3c0,18.7,0,37.3,0,56c0,1.9,3,1.9,3,0c0-18.7,0-37.3,0-56C44.5-6.3,41.5-6.3,41.5-4.3L41.5-4.3z"/>
</g>
<g>
	<linearGradient id="SVGID_8_" gradientUnits="userSpaceOnUse" x1="49.9658" y1="69.1741" x2="49.9658" y2="2.5309">
		<stop  offset="7.066583e-03" style="stop-color:#486ADA"/>
		<stop  offset="0.1742" style="stop-color:#4965DB"/>
		<stop  offset="0.381" style="stop-color:#4D55E0"/>
		<stop  offset="0.6088" style="stop-color:#523CE6"/>
		<stop  offset="0.8499" style="stop-color:#5A1AF0"/>
		<stop  offset="1" style="stop-color:#6000F7"/>
	</linearGradient>
	<path class="st7" d="M48.5,23.7c0,13.3,0,26.7,0,40c0,1.9,3,1.9,3,0c0-13.3,0-26.7,0-40C51.5,21.7,48.5,21.7,48.5,23.7L48.5,23.7z"
		/>
</g>
<g>
	<linearGradient id="SVGID_9_" gradientUnits="userSpaceOnUse" x1="49.9658" y1="69.1741" x2="49.9658" y2="2.5309">
		<stop  offset="7.066583e-03" style="stop-color:#486ADA"/>
		<stop  offset="0.1742" style="stop-color:#4965DB"/>
		<stop  offset="0.381" style="stop-color:#4D55E0"/>
		<stop  offset="0.6088" style="stop-color:#523CE6"/>
		<stop  offset="0.8499" style="stop-color:#5A1AF0"/>
		<stop  offset="1" style="stop-color:#6000F7"/>
	</linearGradient>
	<path class="st8" d="M48.5-3.8c0,7.2,0,14.3,0,21.5c0,1.9,3,1.9,3,0c0-7.2,0-14.3,0-21.5C51.5-5.8,48.5-5.8,48.5-3.8L48.5-3.8z"/>
</g>
<g>
	<linearGradient id="SVGID_10_" gradientUnits="userSpaceOnUse" x1="56.9658" y1="69.1741" x2="56.9658" y2="2.5309">
		<stop  offset="7.066583e-03" style="stop-color:#486ADA"/>
		<stop  offset="0.1742" style="stop-color:#4965DB"/>
		<stop  offset="0.381" style="stop-color:#4D55E0"/>
		<stop  offset="0.6088" style="stop-color:#523CE6"/>
		<stop  offset="0.8499" style="stop-color:#5A1AF0"/>
		<stop  offset="1" style="stop-color:#6000F7"/>
	</linearGradient>
	<path class="st9" d="M55.5-4.3c0,18.7,0,37.3,0,56c0,1.9,3,1.9,3,0c0-18.7,0-37.3,0-56C58.5-6.3,55.5-6.3,55.5-4.3L55.5-4.3z"/>
</g>
<g>
	<linearGradient id="SVGID_11_" gradientUnits="userSpaceOnUse" x1="63.9658" y1="69.1741" x2="63.9658" y2="2.5309">
		<stop  offset="7.066583e-03" style="stop-color:#486ADA"/>
		<stop  offset="0.1742" style="stop-color:#4965DB"/>
		<stop  offset="0.381" style="stop-color:#4D55E0"/>
		<stop  offset="0.6088" style="stop-color:#523CE6"/>
		<stop  offset="0.8499" style="stop-color:#5A1AF0"/>
		<stop  offset="1" style="stop-color:#6000F7"/>
	</linearGradient>
	<path class="st10" d="M62.5-4.3c0,15.3,0,30.7,0,46c0,1.9,3,1.9,3,0c0-15.3,0-30.7,0-46C65.5-6.3,62.5-6.3,62.5-4.3L62.5-4.3z"/>
</g>
<g>
	<linearGradient id="SVGID_12_" gradientUnits="userSpaceOnUse" x1="70.9658" y1="69.1741" x2="70.9658" y2="2.5309">
		<stop  offset="7.066583e-03" style="stop-color:#486ADA"/>
		<stop  offset="0.1742" style="stop-color:#4965DB"/>
		<stop  offset="0.381" style="stop-color:#4D55E0"/>
		<stop  offset="0.6088" style="stop-color:#523CE6"/>
		<stop  offset="0.8499" style="stop-color:#5A1AF0"/>
		<stop  offset="1" style="stop-color:#6000F7"/>
	</linearGradient>
	<path class="st11" d="M69.5-4.3c0,13,0,26,0,39c0,1.9,3,1.9,3,0c0-13,0-26,0-39C72.5-6.3,69.5-6.3,69.5-4.3L69.5-4.3z"/>
</g>
<g>
	<linearGradient id="SVGID_13_" gradientUnits="userSpaceOnUse" x1="70.9658" y1="69.1741" x2="70.9658" y2="2.5309">
		<stop  offset="7.066583e-03" style="stop-color:#486ADA"/>
		<stop  offset="0.1742" style="stop-color:#4965DB"/>
		<stop  offset="0.381" style="stop-color:#4D55E0"/>
		<stop  offset="0.6088" style="stop-color:#523CE6"/>
		<stop  offset="0.8499" style="stop-color:#5A1AF0"/>
		<stop  offset="1" style="stop-color:#6000F7"/>
	</linearGradient>
	<path class="st12" d="M69.5,40.7c0,2,0,4,0,6c0,1.9,3,1.9,3,0c0-2,0-4,0-6C72.5,38.7,69.5,38.7,69.5,40.7L69.5,40.7z"/>
</g>
<g>
	<linearGradient id="SVGID_14_" gradientUnits="userSpaceOnUse" x1="77.9658" y1="69.1741" x2="77.9658" y2="2.5309">
		<stop  offset="7.066583e-03" style="stop-color:#486ADA"/>
		<stop  offset="0.1742" style="stop-color:#4965DB"/>
		<stop  offset="0.381" style="stop-color:#4D55E0"/>
		<stop  offset="0.6088" style="stop-color:#523CE6"/>
		<stop  offset="0.8499" style="stop-color:#5A1AF0"/>
		<stop  offset="1" style="stop-color:#6000F7"/>
	</linearGradient>
	<path class="st13" d="M76.5-4.3c0,15.3,0,30.7,0,46c0,1.9,3,1.9,3,0c0-15.3,0-30.7,0-46C79.5-6.3,76.5-6.3,76.5-4.3L76.5-4.3z"/>
</g>
<g>
	<linearGradient id="SVGID_15_" gradientUnits="userSpaceOnUse" x1="84.9658" y1="69.1741" x2="84.9658" y2="2.5309">
		<stop  offset="7.066583e-03" style="stop-color:#486ADA"/>
		<stop  offset="0.1742" style="stop-color:#4965DB"/>
		<stop  offset="0.381" style="stop-color:#4D55E0"/>
		<stop  offset="0.6088" style="stop-color:#523CE6"/>
		<stop  offset="0.8499" style="stop-color:#5A1AF0"/>
		<stop  offset="1" style="stop-color:#6000F7"/>
	</linearGradient>
	<path class="st14" d="M83.5-4.8c0,11.5,0,23,0,34.5c0,1.9,3,1.9,3,0c0-11.5,0-23,0-34.5C86.5-6.8,83.5-6.8,83.5-4.8L83.5-4.8z"/>
</g>
<g>
	<linearGradient id="SVGID_16_" gradientUnits="userSpaceOnUse" x1="91.9658" y1="69.1741" x2="91.9658" y2="2.5309">
		<stop  offset="7.066583e-03" style="stop-color:#486ADA"/>
		<stop  offset="0.1742" style="stop-color:#4965DB"/>
		<stop  offset="0.381" style="stop-color:#4D55E0"/>
		<stop  offset="0.6088" style="stop-color:#523CE6"/>
		<stop  offset="0.8499" style="stop-color:#5A1AF0"/>
		<stop  offset="1" style="stop-color:#6000F7"/>
	</linearGradient>
	<path class="st15" d="M90.5-4.8c0,6.8,0,13.7,0,20.5c0,1.9,3,1.9,3,0c0-6.8,0-13.7,0-20.5C93.5-6.8,90.5-6.8,90.5-4.8L90.5-4.8z"/>
</g>
</svg>
